<svg width="250" height="74" viewBox="0 0 250 74" fill="none" xmlns="http://www.w3.org/2000/svg">
<g clip-path="url(#clip0_4_13)">
<path fill-rule="evenodd" clip-rule="evenodd" d="M42.6509 51.1081C41.0008 62.1871 36.6517 73.6933 22.6841 73.6933C0.359374 73.6933 0.359375 49.6323 0.359375 49.6323V5.90931C0.359375 5.90931 0.437119 0.524098 6.00114 0.3185C11.8723 0.10184 11.9684 6.01001 11.9684 6.01001V48.5547C11.9684 48.5547 11.9684 61.6626 21.6124 61.6626C31.2565 61.6626 31.2569 48.0161 31.2569 48.0161C31.2569 48.0161 30.3941 42.1834 37.4931 42.4005C41.8826 42.5344 43.3274 46.5658 42.6509 51.1081Z" fill="#FF9100"/>
<path fill-rule="evenodd" clip-rule="evenodd" d="M54.694 43.9922V5.90931C54.694 5.90931 54.7702 0.524098 60.3342 0.3185C66.2054 0.10184 66.3014 6.01001 66.3014 6.01001V44.1235C66.3014 44.1235 66.4158 46.5231 65.9291 48.1217C64.9383 51.3815 62.7233 56.3365 60.8628 56.3453C59.1136 56.354 56.5499 51.5715 55.3049 48.3861C54.6848 46.7958 54.694 43.9922 54.694 43.9922Z" fill="#51CAF6"/>
<path d="M60.6006 73.6842C63.8596 73.6842 66.5015 71.0398 66.5015 67.7779C66.5015 64.516 63.8596 61.8716 60.6006 61.8716C57.3416 61.8716 54.6997 64.516 54.6997 67.7779C54.6997 71.0398 57.3416 73.6842 60.6006 73.6842Z" fill="#FFC77E"/>
<path fill-rule="evenodd" clip-rule="evenodd" d="M98.838 0.370376C98.838 0.370376 104.007 -0.436377 105.279 4.3988C106.076 7.43509 103.966 11.4254 100.046 12.0528C85.2439 14.4224 87.3739 31.0762 102.193 31.0762C112.568 31.0762 141.725 28.7494 141.725 51.1287C141.725 73.5079 117.754 73.5087 117.754 73.5087H83.8121C76.165 73.5087 76.0579 61.8712 84.2146 61.8712H116.681C116.681 61.8712 129.739 61.8712 129.739 52.2028C129.739 42.5344 116.144 42.5347 116.144 42.5347H100.045C100.045 42.5347 75.6117 43.4937 78.0434 17.8271C79.5191 2.25051 98.838 0.370376 98.838 0.370376Z" fill="#D272FF"/>
<path fill-rule="evenodd" clip-rule="evenodd" d="M153.301 67.76V21.8567C153.301 21.8567 153.321 17.3744 153.334 14.4708C153.349 11.2449 151.026 12.0513 151.026 12.0513H134.922C134.922 12.0513 129.627 11.975 129.425 6.38307C129.212 0.482522 135.023 0.386017 135.023 0.386017H167.932C167.932 0.386017 173.763 0.369996 174.151 6.27855C174.164 12.0536 168.466 12.0536 168.466 12.0536H166.857C166.857 12.0536 164.907 12.0536 164.844 14.4708C164.724 19.071 164.844 22.1249 164.844 22.1249L164.91 68.2951C164.91 68.2951 164.942 73.543 159.471 73.6689C153.366 73.8093 153.301 67.76 153.301 67.76Z" fill="#FF6B64"/>
<path fill-rule="evenodd" clip-rule="evenodd" d="M249.716 52.6651C249.716 52.6651 250.524 47.4775 245.685 46.2042C242.646 45.4032 238.653 47.5202 238.025 51.4536C235.654 66.3044 219.179 64.7874 219.179 49.9199V16.4841C219.179 16.4841 219.235 10.915 219.179 6.41396C218.963 0.37114 212.738 0.37114 212.738 0.37114H206.298C206.298 0.37114 201.373 0.37381 198.915 0.37381C176.517 0.37381 176.517 24.4219 176.517 24.4219L176.514 50.3219C176.514 50.3219 176.893 60.0487 179.332 64.0184C185.162 73.5106 195.431 73.6868 195.431 73.6868C195.431 73.6868 197.505 73.6731 198.522 73.6731C206.217 73.6731 206.325 62.0009 198.117 62.0009C197.33 62.0009 188.611 60.3989 188.186 50.7247C187.985 50.4226 188.164 25.4972 188.164 25.4972C188.164 25.4972 188.164 12.3961 197.84 12.3961H205.517C205.517 12.3961 207.471 12.4518 207.491 14.4712C207.519 17.1817 207.516 22.0066 207.516 22.0066V51.454C207.516 51.454 206.556 75.9678 232.244 73.5281C247.835 72.047 249.716 52.6651 249.716 52.6651Z" fill="#51C9C2"/>
</g>
<defs>
<clipPath id="clip0_4_13">
<rect width="250" height="74" fill="white"/>
</clipPath>
</defs>
</svg>
